<?xml version="1.0" encoding="UTF-8"?>
<svg width="155px" height="155px" viewBox="0 0 155 155" version="1.1" xmlns="http://www.w3.org/2000/svg" xmlns:xlink="http://www.w3.org/1999/xlink">
    <!-- Generator: Sketch 46.2 (44496) - http://www.bohemiancoding.com/sketch -->
    <title>Artboard</title>
    <desc>Created with Sketch.</desc>
    <defs></defs>
    <g id="ToExport" stroke="none" stroke-width="1" fill="none" fill-rule="evenodd">
        <g id="Artboard">
            <g id="Logo-Copy-2" stroke="#78C06B" stroke-width="7">
                <rect id="Rectangle-3-Copy-2" x="3.5" y="3.5" width="148" height="148"></rect>
            </g>
            <g id="A6" transform="translate(15.000000, 36.000000)" fill="#326399">
                <path d="M51.986407,53.72 L21.506407,53.72 L11.786407,83 L0.746406953,83 L30.506407,0.2 L44.426407,0.2 L72.986407,83 L61.826407,83 L51.986407,53.72 Z M24.386407,45.32 L49.226407,45.32 L37.226407,8.36 L24.386407,45.32 Z" id="A"></path>
                <path d="M110.292251,27.8 C104.526889,27.8 99.9269349,29.9619784 96.4922511,34.286 C93.0575673,38.6100216 90.9415884,44.0533005 90.1442511,50.616 C94.1922713,46.3839788 99.0835558,44.268 104.818251,44.268 C110.552946,44.268 114.999569,46.0159825 118.158251,49.512 C121.316934,53.0080175 122.896251,57.7306369 122.896251,63.68 C122.896251,69.6293631 121.163602,74.5053143 117.698251,78.308 C114.2329,82.1106857 109.64828,84.012 103.944251,84.012 C97.0748834,84.012 91.8002695,81.4053594 88.1202511,76.192 C84.4402327,70.9786406 82.6002511,64.1707087 82.6002511,55.768 C82.6002511,45.7706167 85.0535599,37.4906995 89.9602511,30.928 C94.8669423,24.3653005 101.613542,21.084 110.200251,21.084 C112.960265,21.084 115.78157,21.5439954 118.664251,22.464 L118.664251,29.548 C116.026905,28.3826608 113.236266,27.8 110.292251,27.8 Z M94.0542511,72.282 C96.5995972,75.6246834 99.7582322,77.296 103.530251,77.296 C107.30227,77.296 110.215574,76.0080129 112.270251,73.432 C114.324928,70.8559871 115.352251,67.5746866 115.352251,63.588 C115.352251,59.6013134 114.324928,56.4733447 112.270251,54.204 C110.215574,51.9346553 107.532268,50.8 104.220251,50.8 C98.7002235,50.8 93.9162713,53.0386443 89.8682511,57.516 C90.1135857,64.0173658 91.508905,68.9393166 94.0542511,72.282 Z" id="6-copy-2"></path>
            </g>
        </g>
    </g>
</svg>