<svg width="155" height="155" viewBox="0 0 155 155" xmlns="http://www.w3.org/2000/svg"><title>Artboard</title><g fill="none" fill-rule="evenodd"><path d="M3.5 3.5h148v148H3.5z" stroke="#78C06B" stroke-width="7"/><g fill="#326399"><path d="M66.986 89.72h-30.48L26.786 119h-11.04l29.76-82.8h13.92l28.56 82.8h-11.16l-9.84-29.28zm-27.6-8.4h24.84l-12-36.96-12.84 36.96zM125.292 63.8c-5.765 0-10.365 2.162-13.8 6.486-3.434 4.324-5.55 9.767-6.348 16.33 4.048-4.232 8.94-6.348 14.674-6.348 5.735 0 10.182 1.748 13.34 5.244 3.16 3.496 4.738 8.22 4.738 14.168 0 5.95-1.732 10.825-5.198 14.628-3.465 3.803-8.05 5.704-13.754 5.704-6.87 0-12.144-2.607-15.824-7.82-3.68-5.213-5.52-12.02-5.52-20.424 0-9.997 2.454-18.277 7.36-24.84 4.907-6.563 11.654-9.844 20.24-9.844 2.76 0 5.582.46 8.464 1.38v7.084c-2.637-1.165-5.428-1.748-8.372-1.748zm-16.238 44.482c2.546 3.343 5.704 5.014 9.476 5.014 3.772 0 6.686-1.288 8.74-3.864 2.055-2.576 3.082-5.857 3.082-9.844 0-3.987-1.027-7.115-3.082-9.384-2.054-2.27-4.738-3.404-8.05-3.404-5.52 0-10.304 2.24-14.352 6.716.246 6.5 1.64 11.423 4.186 14.766z"/></g></g></svg>